<svg xmlns="http://www.w3.org/2000/svg" viewBox="0 0 512 512" width="512" height="512"><rect width="512" height="512" rx="112" fill="#FAF6EF"/><path d="M131 57Q131 93 142.5 150.5Q154 208 172.5 274.5Q191 341 215.0 410.5Q239 480 264.0 541.0Q289 602 313.0 648.0Q337 694 356 714Q366 713 382.5 706.5Q399 700 416.0 691.0Q433 682 447.0 671.5Q461 661 465 652Q436 626 407.5 573.5Q379 521 352.5 454.0Q326 387 303.0 312.5Q280 238 263.0 168.0Q246 98 236.5 38.0Q227 -22 227 -59Q227 -76 230 -80Q208 -79 198.0 -72.5Q188 -66 182.5 -58.5Q177 -51 172.5 -43.5Q168 -36 159 -32Q152 -29 147.0 -18.0Q142 -7 138.5 6.5Q135 20 133.0 34.0Q131 48 131 57Z" fill="#211F28" transform="matrix(0.24685138539042822 0 0 -0.24685138539042822 182.44 328.25)"/><g transform="translate(214.78,362.00) scale(0.4000,1.3500)"><path d="M 8.03 28.34 L 11.47 28.54 L 14.91 28.69 L 18.34 28.79 L 21.76 28.86 L 25.18 28.90 L 28.60 28.93 L 32.01 28.93 L 35.41 28.92 L 38.81 28.90 L 42.20 28.87 L 45.59 28.82 L 48.97 28.76 L 52.35 28.69 L 55.72 28.62 L 59.09 28.53 L 62.45 28.43 L 65.80 28.33 L 69.15 28.22 L 72.49 28.10 L 75.83 27.97 L 79.16 27.84 L 82.49 27.70 L 85.81 27.56 L 89.12 27.40 L 92.43 27.25 L 95.74 27.08 L 99.03 26.91 L 102.33 26.74 L 105.61 26.56 L 108.89 26.37 L 112.17 26.18 L 115.44 25.98 L 118.70 25.78 L 121.96 25.58 L 125.21 25.37 L 128.45 25.15 L 131.69 24.93 L 134.93 24.71 L 138.16 24.48 L 141.38 24.25 L 144.60 24.02 L 147.81 23.78 L 151.01 23.53 L 154.21 23.29 L 157.40 23.04 L 160.59 22.79 L 163.77 22.53 L 166.95 22.27 L 170.12 22.01 L 173.28 21.74 L 176.44 21.47 L 179.59 21.20 L 182.74 20.93 L 185.88 20.65 L 189.01 20.37 L 192.14 20.09 L 195.26 19.81 L 198.38 19.52 L 201.49 19.23 L 204.59 18.94 L 207.69 18.65 L 210.78 18.36 L 213.87 18.06 L 216.95 17.76 L 220.02 17.46 L 223.09 17.16 L 226.16 16.86 L 229.21 16.55 L 232.26 16.25 L 235.31 15.94 L 238.34 15.63 L 241.38 15.32 L 244.40 15.01 L 247.42 14.70 L 250.44 14.39 L 253.44 14.08 L 256.45 13.76 L 259.44 13.45 L 262.43 13.13 L 265.42 12.82 L 268.39 12.50 L 271.37 12.19 L 274.33 11.87 L 277.29 11.56 L 280.25 11.24 L 283.19 10.93 L 286.13 10.62 L 289.07 10.31 L 292.00 10.00 L 292.00 10.00 L 289.06 10.17 L 286.11 10.33 L 283.16 10.49 L 280.20 10.65 L 277.23 10.82 L 274.26 10.98 L 271.28 11.15 L 268.30 11.31 L 265.31 11.48 L 262.31 11.64 L 259.31 11.81 L 256.30 11.97 L 253.29 12.14 L 250.27 12.31 L 247.25 12.48 L 244.22 12.65 L 241.18 12.82 L 238.14 12.99 L 235.09 13.16 L 232.03 13.33 L 228.97 13.51 L 225.91 13.68 L 222.84 13.85 L 219.76 14.03 L 216.68 14.20 L 213.59 14.37 L 210.49 14.55 L 207.40 14.72 L 204.29 14.89 L 201.18 15.07 L 198.06 15.24 L 194.94 15.42 L 191.81 15.59 L 188.68 15.77 L 185.54 15.94 L 182.39 16.11 L 179.24 16.29 L 176.09 16.46 L 172.93 16.64 L 169.76 16.81 L 166.59 16.98 L 163.41 17.16 L 160.23 17.33 L 157.04 17.50 L 153.84 17.67 L 150.64 17.84 L 147.44 18.01 L 144.23 18.19 L 141.01 18.36 L 137.79 18.53 L 134.56 18.69 L 131.33 18.86 L 128.09 19.03 L 124.85 19.20 L 121.60 19.37 L 118.35 19.53 L 115.09 19.70 L 111.82 19.87 L 108.55 20.03 L 105.27 20.20 L 101.99 20.36 L 98.71 20.53 L 95.42 20.69 L 92.12 20.85 L 88.82 21.02 L 85.51 21.18 L 82.20 21.34 L 78.88 21.51 L 75.55 21.67 L 72.22 21.83 L 68.89 22.00 L 65.55 22.16 L 62.21 22.33 L 58.86 22.49 L 55.50 22.66 L 52.14 22.83 L 48.77 23.00 L 45.40 23.17 L 42.03 23.35 L 38.64 23.53 L 35.26 23.72 L 31.86 23.91 L 28.47 24.11 L 25.06 24.31 L 21.66 24.53 L 18.24 24.77 L 14.83 25.03 L 11.40 25.32 L 7.97 25.66 Z" fill="#FF5A3C"/></g></svg>