<svg xmlns="http://www.w3.org/2000/svg" viewBox="0 0 1118 292" width="1118" height="292"><path d="M131 57Q131 93 142.5 150.5Q154 208 172.5 274.5Q191 341 215.0 410.5Q239 480 264.0 541.0Q289 602 313.0 648.0Q337 694 356 714Q366 713 382.5 706.5Q399 700 416.0 691.0Q433 682 447.0 671.5Q461 661 465 652Q436 626 407.5 573.5Q379 521 352.5 454.0Q326 387 303.0 312.5Q280 238 263.0 168.0Q246 98 236.5 38.0Q227 -22 227 -59Q227 -76 230 -80Q208 -79 198.0 -72.5Q188 -66 182.5 -58.5Q177 -51 172.5 -43.5Q168 -36 159 -32Q152 -29 147.0 -18.0Q142 -7 138.5 6.5Q135 20 133.0 34.0Q131 48 131 57Z" fill="#211F28" transform="matrix(0.17873100983020554 0 0 -0.17873100983020554 16.59 188.35)"/>
<path d="M73 20Q78 49 90.5 96.5Q103 144 120.0 197.5Q137 251 156.0 305.0Q175 359 193 402Q206 433 216.0 450.5Q226 468 238 480Q252 478 267.0 473.0Q282 468 296.0 461.0Q310 454 321.0 446.5Q332 439 338 432Q311 400 290.5 359.0Q270 318 249 254Q303 302 344.5 346.0Q386 390 422 444Q428 449 443 449Q457 449 470.0 444.5Q483 440 488 432Q470 384 470 337Q470 293 483 271Q482 265 469.5 248.0Q457 231 442 216Q415 230 394.0 254.5Q373 279 363 308Q316 275 283.0 243.5Q250 212 226.5 173.5Q203 135 186.5 85.0Q170 35 155 -34Q146 -33 133.5 -27.5Q121 -22 108.5 -14.0Q96 -6 86.0 3.0Q76 12 73 20Z" fill="#211F28" transform="matrix(0.17873100983020554 0 0 -0.17873100983020554 72.89 188.35)"/>
<path d="M152 -289Q127 -279 122 -251Q118 -224 88 -207Q96 -156 106.0 -104.0Q116 -52 131.5 14.5Q147 81 170.5 169.5Q194 258 230 384Q197 384 178.0 383.0Q159 382 141 379Q137 383 134.5 390.0Q132 397 132 403Q142 407 173.0 413.5Q204 420 241 425Q265 501 296.0 561.5Q327 622 363.0 665.0Q399 708 439.0 731.0Q479 754 520 754Q532 754 543.0 752.5Q554 751 560 751Q569 758 584.0 763.5Q599 769 610 769Q622 769 641 756Q633 742 624.0 718.0Q615 694 609 671Q584 597 556 575Q545 575 544 604Q543 625 538 645Q534 654 532.5 661.0Q531 668 531 679Q531 685 532.0 693.5Q533 702 536 722Q519 722 498.5 701.0Q478 680 455.5 641.5Q433 603 410.0 550.0Q387 497 366 433L450 436Q455 431 458.5 413.5Q462 396 463 377L353 383Q315 270 282.0 167.0Q249 64 223.0 -23.0Q197 -110 178.5 -178.5Q160 -247 152 -289Z" fill="#211F28" transform="matrix(0.17873100983020554 0 0 -0.17873100983020554 144.92 188.35)"/>
<path d="M442 404Q452 404 465.5 400.5Q479 397 490.0 391.5Q501 386 508.5 380.0Q516 374 516 369Q496 327 479.0 284.5Q462 242 450.0 203.0Q438 164 431.5 130.0Q425 96 425 71Q425 43 431.0 24.5Q437 6 451 -2Q439 -10 420.0 -15.0Q401 -20 386 -20Q332 -20 332 54Q332 111 370 210Q350 164 324.0 123.5Q298 83 271.0 52.0Q244 21 216.5 1.5Q189 -18 166 -22Q129 -20 106.0 13.5Q83 47 83 99Q83 155 107.0 217.0Q131 279 168.5 332.0Q206 385 250.0 420.5Q294 456 335 458Q345 455 357.5 446.0Q370 437 381.5 425.0Q393 413 401.0 400.5Q409 388 410 379Q370 373 327.5 340.0Q285 307 250.5 260.5Q216 214 194.0 161.0Q172 108 172 62Q172 43 186 38Q215 44 253.0 87.5Q291 131 345 222Q355 240 367.5 262.0Q380 284 393.0 308.0Q406 332 418.5 356.5Q431 381 442 404Z" fill="#211F28" transform="matrix(0.17873100983020554 0 0 -0.17873100983020554 206.04 188.35)"/>
<path d="M259 485Q285 477 308.0 449.5Q331 422 342 389Q331 362 308.0 324.0Q285 286 262.0 246.5Q239 207 220.5 171.5Q202 136 199 113Q215 130 234.5 152.5Q254 175 272.5 197.5Q291 220 307.0 238.5Q323 257 332 266Q351 286 377.0 312.5Q403 339 431.5 362.5Q460 386 489.0 402.5Q518 419 542 419Q568 419 585.5 401.5Q603 384 613 365Q613 363 605.5 359.5Q598 356 584 340Q570 322 552.5 290.5Q535 259 518.5 222.5Q502 186 491.0 148.0Q480 110 480 79Q480 54 486.5 47.0Q493 40 505 40Q516 40 528.0 45.0Q540 50 547 50Q551 48 553.5 41.5Q556 35 556 30Q548 23 537.0 16.0Q526 9 514.0 3.0Q502 -3 490.5 -7.0Q479 -11 470 -11Q441 -11 422.5 -2.5Q404 6 393.5 20.0Q383 34 379.0 53.5Q375 73 375 95Q375 107 377.0 122.0Q379 137 385.0 157.5Q391 178 402.0 206.5Q413 235 430 275Q428 275 403.0 261.0Q378 247 349 218Q302 173 264.5 129.0Q227 85 188 31Q166 0 149.5 -21.5Q133 -43 121 -50Q100 -38 90.0 -16.5Q80 5 75 28Q75 47 80.5 76.0Q86 105 95.5 140.5Q105 176 119.0 215.0Q133 254 150 293Q188 381 219.5 431.0Q251 481 259 485Z" fill="#211F28" transform="matrix(0.17873100983020554 0 0 -0.17873100983020554 290.04 188.35)"/>
<path d="M131 57Q131 93 142.5 150.5Q154 208 172.5 274.5Q191 341 215.0 410.5Q239 480 264.0 541.0Q289 602 313.0 648.0Q337 694 356 714Q366 713 382.5 706.5Q399 700 416.0 691.0Q433 682 447.0 671.5Q461 661 465 652Q436 626 407.5 573.5Q379 521 352.5 454.0Q326 387 303.0 312.5Q280 238 263.0 168.0Q246 98 236.5 38.0Q227 -22 227 -59Q227 -76 230 -80Q208 -79 198.0 -72.5Q188 -66 182.5 -58.5Q177 -51 172.5 -43.5Q168 -36 159 -32Q152 -29 147.0 -18.0Q142 -7 138.5 6.5Q135 20 133.0 34.0Q131 48 131 57Z" fill="#211F28" transform="matrix(0.17873100983020554 0 0 -0.17873100983020554 429.10 188.35)"/>
<path d="M442 398Q441 379 435.5 358.5Q430 338 422.0 321.5Q414 305 405.0 294.0Q396 283 388 283Q377 284 375 298Q375 301 377.5 307.5Q380 314 383.0 322.0Q386 330 388.5 338.0Q391 346 391 352Q391 366 384.5 375.5Q378 385 367 385Q327 385 306.0 335.0Q285 285 285 188Q285 178 286 176Q307 177 323.5 177.5Q340 178 356 178Q357 176 357 170Q357 161 353 157Q330 152 316.5 148.5Q303 145 296.0 142.0Q289 139 287.5 135.5Q286 132 286 126Q286 118 286.5 110.0Q287 102 287 90Q287 6 241.5 -45.0Q196 -96 115 -104Q101 -103 86.0 -96.0Q71 -89 57.5 -78.0Q44 -67 34.0 -53.5Q24 -40 20 -26Q20 12 36.0 46.5Q52 81 79.5 107.5Q107 134 144.5 150.5Q182 167 226 170Q226 195 221.0 219.0Q216 243 210.5 265.5Q205 288 200.0 309.5Q195 331 195 352Q195 379 206.0 405.5Q217 432 235.0 454.5Q253 477 277.0 493.0Q301 509 327 515Q338 512 356.5 497.5Q375 483 393.0 465.0Q411 447 425.0 428.5Q439 410 442 398ZM112 -58Q136 -48 157.5 -29.0Q179 -10 195.0 14.0Q211 38 220.5 65.0Q230 92 230 118Q210 115 186.0 99.5Q162 84 141.0 62.5Q120 41 106.0 18.0Q92 -5 92 -22Q92 -44 112 -58Z" fill="#211F28" transform="matrix(0.17873100983020554 0 0 -0.17873100983020554 485.40 188.35)"/>
<path d="M675 307Q659 306 636.0 286.5Q613 267 586.5 236.5Q560 206 531.5 169.0Q503 132 476.5 95.5Q450 59 427.0 27.0Q404 -5 388 -24Q366 -15 350.0 2.5Q334 20 327 46Q332 77 341.0 110.5Q350 144 364.5 180.0Q379 216 400.5 255.5Q422 295 453 339Q438 338 412.0 317.5Q386 297 356.0 264.5Q326 232 294.0 191.5Q262 151 234 112Q197 60 172.5 21.0Q148 -18 137 -25Q111 -6 101.0 16.0Q91 38 86 65Q87 89 93.5 125.0Q100 161 112 199Q135 272 171.5 344.0Q208 416 242 476Q270 470 292.5 457.0Q315 444 340 419Q330 388 309.0 353.5Q288 319 265.0 281.0Q242 243 223.0 203.0Q204 163 198 122Q226 162 264.5 214.0Q303 266 343.5 312.0Q384 358 424.0 390.0Q464 422 496 422Q508 422 522.0 418.0Q536 414 548.0 408.0Q560 402 568.0 396.5Q576 391 577 388Q572 368 553.5 333.5Q535 299 514.0 261.0Q493 223 475.0 187.5Q457 152 454 131Q503 198 546.0 252.5Q589 307 627.0 346.0Q665 385 697.5 406.0Q730 427 759 427Q779 427 796.5 416.5Q814 406 821 386Q812 356 791.5 314.0Q771 272 750.0 225.5Q729 179 712.5 134.0Q696 89 696 53Q696 32 702.0 25.5Q708 19 719 19Q731 19 741.5 23.5Q752 28 757 28Q763 24 764.0 18.0Q765 12 765 7Q745 -9 724.0 -19.5Q703 -30 677 -30Q653 -30 637.5 -22.0Q622 -14 612.0 0.0Q602 14 598.0 32.0Q594 50 594 71Q594 105 603.0 138.5Q612 172 624.5 202.5Q637 233 651.0 259.5Q665 286 675 307Z" fill="#211F28" transform="matrix(0.17873100983020554 0 0 -0.17873100983020554 547.24 188.35)"/>
<path d="M442 404Q452 404 465.5 400.5Q479 397 490.0 391.5Q501 386 508.5 380.0Q516 374 516 369Q496 327 479.0 284.5Q462 242 450.0 203.0Q438 164 431.5 130.0Q425 96 425 71Q425 43 431.0 24.5Q437 6 451 -2Q439 -10 420.0 -15.0Q401 -20 386 -20Q332 -20 332 54Q332 111 370 210Q350 164 324.0 123.5Q298 83 271.0 52.0Q244 21 216.5 1.5Q189 -18 166 -22Q129 -20 106.0 13.5Q83 47 83 99Q83 155 107.0 217.0Q131 279 168.5 332.0Q206 385 250.0 420.5Q294 456 335 458Q345 455 357.5 446.0Q370 437 381.5 425.0Q393 413 401.0 400.5Q409 388 410 379Q370 373 327.5 340.0Q285 307 250.5 260.5Q216 214 194.0 161.0Q172 108 172 62Q172 43 186 38Q215 44 253.0 87.5Q291 131 345 222Q355 240 367.5 262.0Q380 284 393.0 308.0Q406 332 418.5 356.5Q431 381 442 404Z" fill="#211F28" transform="matrix(0.17873100983020554 0 0 -0.17873100983020554 683.97 188.35)"/>
<path d="M98 67Q98 76 99.5 89.5Q101 103 105.0 125.5Q109 148 115.5 180.0Q122 212 132 257Q134 267 141.0 289.0Q148 311 159.5 335.5Q171 360 187.5 383.0Q204 406 227 417Q244 413 272.0 396.5Q300 380 320 351Q297 325 281.5 299.0Q266 273 253.5 245.0Q241 217 230.5 187.0Q220 157 207 124Q196 96 187.0 66.5Q178 37 177 15Q177 -3 176.5 -10.5Q176 -18 171 -18Q167 -18 155.0 -13.0Q143 -8 130.5 2.5Q118 13 108.0 29.0Q98 45 98 67ZM289 501Q289 507 292 519Q287 524 283.5 534.0Q280 544 280 552Q280 561 282.5 576.5Q285 592 289.0 610.0Q293 628 299.0 647.5Q305 667 311 683Q323 683 340.5 676.5Q358 670 376.0 659.5Q394 649 409.0 636.5Q424 624 432 613Q421 602 403.0 582.5Q385 563 368.0 541.5Q351 520 337.0 501.0Q323 482 319 474Q307 476 298.0 484.5Q289 493 289 501Z" fill="#211F28" transform="matrix(0.17873100983020554 0 0 -0.17873100983020554 767.97 188.35)"/>
<path d="M96 64Q96 108 117.0 187.5Q138 267 176 373Q238 542 292.5 654.5Q347 767 399 830Q411 828 428.5 820.0Q446 812 463.0 802.5Q480 793 493.5 783.0Q507 773 511 767Q433 675 374.0 569.0Q315 463 266 326Q224 208 202.0 113.5Q180 19 180 -44Q180 -61 180.0 -65.0Q180 -69 181 -73Q167 -71 157.0 -66.0Q147 -61 144 -54Q142 -49 133.0 -39.5Q124 -30 117 -25Q108 -19 102.0 6.5Q96 32 96 64Z" fill="#211F28" transform="matrix(0.17873100983020554 0 0 -0.17873100983020554 810.15 188.35)"/>
<path d="M514 -74Q512 -75 510.0 -75.0Q508 -75 502 -75Q488 -75 469.5 -70.5Q451 -66 433.5 -59.5Q416 -53 403.5 -45.0Q391 -37 388 -31Q387 -17 387.0 -2.0Q387 13 387 27Q387 139 403.5 261.0Q420 383 458 525Q462 539 466.5 560.5Q471 582 476 607Q452 588 419.0 546.5Q386 505 349.5 448.5Q313 392 276.5 324.5Q240 257 210.0 187.5Q180 118 158.5 50.0Q137 -18 132 -76Q84 -62 65.5 -48.0Q47 -34 47 -14Q47 4 58.0 37.0Q69 70 89.0 115.0Q109 160 138.0 215.5Q167 271 202 335Q242 408 280.5 472.0Q319 536 356.0 588.0Q393 640 428.5 678.0Q464 716 499 736Q513 736 536.5 729.0Q560 722 582.5 712.0Q605 702 622.5 691.5Q640 681 642 674Q628 646 609.0 590.0Q590 534 570.5 463.0Q551 392 533.5 312.5Q516 233 506 160Q529 215 559.5 274.5Q590 334 624.0 392.5Q658 451 693.5 506.0Q729 561 763.0 606.5Q797 652 826.5 686.0Q856 720 879 736Q893 736 916.5 729.0Q940 722 962.5 712.0Q985 702 1002.5 691.5Q1020 681 1022 674Q990 617 966.0 535.0Q942 453 925.5 363.0Q909 273 900.5 184.5Q892 96 892 26Q892 3 892.0 -22.0Q892 -47 894 -74Q880 -74 860.5 -70.5Q841 -67 822.5 -61.0Q804 -55 789.0 -47.5Q774 -40 768 -31Q767 -17 767.0 -2.0Q767 13 767 27Q767 139 783.5 261.0Q800 383 838 525Q842 539 847.0 563.0Q852 587 857 613Q829 599 793.5 559.5Q758 520 721.5 463.5Q685 407 649.5 338.0Q614 269 585.5 197.5Q557 126 537.5 55.5Q518 -15 514 -74Z" fill="#211F28" transform="matrix(0.17873100983020554 0 0 -0.17873100983020554 894.87 188.35)"/><g transform="translate(40.00,192.35) scale(3.4584,1.5000)"><path d="M 8.03 28.34 L 11.47 28.54 L 14.91 28.69 L 18.34 28.79 L 21.76 28.86 L 25.18 28.90 L 28.60 28.93 L 32.01 28.93 L 35.41 28.92 L 38.81 28.90 L 42.20 28.87 L 45.59 28.82 L 48.97 28.76 L 52.35 28.69 L 55.72 28.62 L 59.09 28.53 L 62.45 28.43 L 65.80 28.33 L 69.15 28.22 L 72.49 28.10 L 75.83 27.97 L 79.16 27.84 L 82.49 27.70 L 85.81 27.56 L 89.12 27.40 L 92.43 27.25 L 95.74 27.08 L 99.03 26.91 L 102.33 26.74 L 105.61 26.56 L 108.89 26.37 L 112.17 26.18 L 115.44 25.98 L 118.70 25.78 L 121.96 25.58 L 125.21 25.37 L 128.45 25.15 L 131.69 24.93 L 134.93 24.71 L 138.16 24.48 L 141.38 24.25 L 144.60 24.02 L 147.81 23.78 L 151.01 23.53 L 154.21 23.29 L 157.40 23.04 L 160.59 22.79 L 163.77 22.53 L 166.95 22.27 L 170.12 22.01 L 173.28 21.74 L 176.44 21.47 L 179.59 21.20 L 182.74 20.93 L 185.88 20.65 L 189.01 20.37 L 192.14 20.09 L 195.26 19.81 L 198.38 19.52 L 201.49 19.23 L 204.59 18.94 L 207.69 18.65 L 210.78 18.36 L 213.87 18.06 L 216.95 17.76 L 220.02 17.46 L 223.09 17.16 L 226.16 16.86 L 229.21 16.55 L 232.26 16.25 L 235.31 15.94 L 238.34 15.63 L 241.38 15.32 L 244.40 15.01 L 247.42 14.70 L 250.44 14.39 L 253.44 14.08 L 256.45 13.76 L 259.44 13.45 L 262.43 13.13 L 265.42 12.82 L 268.39 12.50 L 271.37 12.19 L 274.33 11.87 L 277.29 11.56 L 280.25 11.24 L 283.19 10.93 L 286.13 10.62 L 289.07 10.31 L 292.00 10.00 L 292.00 10.00 L 289.06 10.17 L 286.11 10.33 L 283.16 10.49 L 280.20 10.65 L 277.23 10.82 L 274.26 10.98 L 271.28 11.15 L 268.30 11.31 L 265.31 11.48 L 262.31 11.64 L 259.31 11.81 L 256.30 11.97 L 253.29 12.14 L 250.27 12.31 L 247.25 12.48 L 244.22 12.65 L 241.18 12.82 L 238.14 12.99 L 235.09 13.16 L 232.03 13.33 L 228.97 13.51 L 225.91 13.68 L 222.84 13.85 L 219.76 14.03 L 216.68 14.20 L 213.59 14.37 L 210.49 14.55 L 207.40 14.72 L 204.29 14.89 L 201.18 15.07 L 198.06 15.24 L 194.94 15.42 L 191.81 15.59 L 188.68 15.77 L 185.54 15.94 L 182.39 16.11 L 179.24 16.29 L 176.09 16.46 L 172.93 16.64 L 169.76 16.81 L 166.59 16.98 L 163.41 17.16 L 160.23 17.33 L 157.04 17.50 L 153.84 17.67 L 150.64 17.84 L 147.44 18.01 L 144.23 18.19 L 141.01 18.36 L 137.79 18.53 L 134.56 18.69 L 131.33 18.86 L 128.09 19.03 L 124.85 19.20 L 121.60 19.37 L 118.35 19.53 L 115.09 19.70 L 111.82 19.87 L 108.55 20.03 L 105.27 20.20 L 101.99 20.36 L 98.71 20.53 L 95.42 20.69 L 92.12 20.85 L 88.82 21.02 L 85.51 21.18 L 82.20 21.34 L 78.88 21.51 L 75.55 21.67 L 72.22 21.83 L 68.89 22.00 L 65.55 22.16 L 62.21 22.33 L 58.86 22.49 L 55.50 22.66 L 52.14 22.83 L 48.77 23.00 L 45.40 23.17 L 42.03 23.35 L 38.64 23.53 L 35.26 23.72 L 31.86 23.91 L 28.47 24.11 L 25.06 24.31 L 21.66 24.53 L 18.24 24.77 L 14.83 25.03 L 11.40 25.32 L 7.97 25.66 Z" fill="#FF5A3C"/></g></svg>